<?xml version="1.0" standalone="no"?>
<!DOCTYPE svg PUBLIC "-//W3C//DTD SVG 20010904//EN"
 "http://www.w3.org/TR/2001/REC-SVG-20010904/DTD/svg10.dtd">
<svg version="1.0" xmlns="http://www.w3.org/2000/svg"
 width="909.000000pt" height="909.000000pt" viewBox="0 0 909.000000 909.000000"
 preserveAspectRatio="xMidYMid meet">

<g transform="translate(0.000000,909.000000) scale(0.100000,-0.100000)"
fill="#000000" stroke="none">
<path d="M2840 5784 c-162 -35 -313 -150 -384 -295 -87 -177 -89 -420 -5 -596
38 -81 146 -194 226 -236 165 -88 414 -88 560 -1 134 81 255 244 180 244 -17
0 -35 -16 -65 -60 -48 -68 -125 -133 -191 -163 -127 -56 -334 40 -445 207 -19
29 -48 89 -63 132 -24 69 -27 94 -27 199 0 133 13 192 67 304 40 82 125 174
191 209 124 64 275 5 337 -132 20 -45 25 -101 9 -111 -5 -3 -10 -15 -10 -26 0
-31 40 -23 109 21 34 22 66 40 71 40 33 0 -27 117 -86 170 -107 94 -300 132
-474 94z"/>
<path d="M435 5302 c-210 -539 -241 -609 -279 -639 -14 -12 -26 -28 -26 -37 0
-14 18 -16 140 -16 127 0 140 2 140 18 0 9 -14 25 -30 34 -16 9 -39 32 -50 50
-30 47 -22 103 31 242 l44 116 186 0 186 0 51 -137 c68 -182 68 -184 42 -238
-12 -25 -26 -45 -31 -45 -5 0 -9 -9 -9 -20 0 -19 7 -20 195 -20 188 0 195 1
195 20 0 11 -6 20 -14 20 -23 0 -78 71 -111 145 -18 38 -112 278 -211 532
l-179 463 -40 0 -40 0 -190 -488z m230 51 c38 -98 75 -193 82 -210 l13 -33
-169 0 -168 0 81 210 c44 115 83 210 86 210 3 0 37 -80 75 -177z"/>
<path d="M1240 5771 c0 -10 6 -21 14 -24 8 -3 27 -22 42 -43 l29 -37 6 -406
c4 -286 9 -418 18 -446 8 -25 33 -60 65 -91 90 -88 211 -118 445 -112 124 3
141 6 193 31 72 35 140 110 168 185 31 81 39 196 40 531 l0 294 25 43 c14 23
34 46 45 49 11 3 20 15 20 26 0 18 -8 19 -120 19 -113 0 -120 -1 -120 -20 0
-11 7 -20 14 -20 21 0 62 -58 75 -105 13 -48 14 -510 2 -640 -17 -165 -76
-267 -189 -321 -49 -24 -73 -29 -164 -32 -102 -4 -109 -3 -158 24 -63 34 -103
81 -133 154 -21 53 -22 70 -25 435 -4 405 -1 439 43 473 14 11 25 27 25 36 0
14 -21 16 -180 16 -170 0 -180 -1 -180 -19z"/>
<path d="M3490 5774 c0 -9 11 -25 25 -36 14 -11 34 -37 45 -59 19 -36 20 -60
20 -479 0 -414 -1 -443 -19 -478 -10 -20 -31 -48 -45 -61 -14 -14 -26 -33 -26
-44 0 -17 5 -19 38 -13 20 3 101 6 180 6 129 0 142 2 142 18 0 9 -9 23 -21 30
-41 26 -49 69 -49 271 l0 190 50 50 c82 82 135 86 201 14 54 -57 79 -129 119
-338 24 -119 30 -137 68 -177 33 -36 97 -55 205 -62 79 -5 87 -3 87 13 0 10
-18 30 -39 44 -67 45 -102 123 -136 306 -43 223 -129 316 -306 328 l-78 6 175
186 c167 178 264 261 305 261 12 0 19 7 19 20 0 19 -7 20 -160 20 -151 0 -160
-1 -160 -19 0 -11 9 -22 19 -26 24 -7 51 -63 42 -87 -3 -10 -96 -115 -206
-233 l-200 -214 -3 217 c-3 235 3 279 43 310 14 11 25 27 25 36 0 14 -21 16
-180 16 -159 0 -180 -2 -180 -16z"/>
<path d="M4540 5774 c0 -9 11 -25 25 -36 14 -11 34 -37 45 -59 19 -36 20 -60
20 -479 0 -419 -1 -443 -20 -479 -11 -22 -31 -48 -45 -59 -14 -11 -25 -27 -25
-36 0 -14 44 -16 454 -16 l453 0 1 83 c0 57 8 108 26 170 32 108 32 117 2 117
-19 0 -27 -9 -41 -47 -28 -73 -150 -190 -249 -239 -78 -38 -81 -39 -194 -39
-171 0 -156 -49 -160 523 -3 496 -1 526 43 560 14 11 25 27 25 36 0 14 -21 16
-180 16 -159 0 -180 -2 -180 -16z"/>
<path d="M5835 5302 c-210 -539 -241 -609 -279 -639 -14 -12 -26 -28 -26 -37
0 -14 18 -16 140 -16 127 0 140 2 140 18 0 9 -14 25 -30 34 -16 9 -39 32 -50
50 -30 47 -22 103 31 242 l44 116 186 0 186 0 51 -137 c68 -182 68 -184 42
-238 -12 -25 -26 -45 -31 -45 -5 0 -9 -9 -9 -20 0 -19 7 -20 195 -20 188 0
195 1 195 20 0 11 -6 20 -14 20 -23 0 -78 71 -111 145 -18 38 -112 278 -211
532 l-179 463 -40 0 -40 0 -190 -488z m230 51 c38 -98 75 -193 82 -210 l13
-33 -169 0 -168 0 81 210 c44 115 83 210 86 210 3 0 37 -80 75 -177z"/>
<path d="M6640 5771 c0 -12 9 -20 28 -24 35 -7 137 -114 163 -172 17 -37 19
-74 19 -434 l0 -394 -25 -43 c-14 -23 -34 -46 -45 -49 -11 -3 -20 -15 -20 -26
0 -18 8 -19 120 -19 111 0 120 1 120 19 0 10 -9 21 -19 24 -11 2 -32 24 -48
48 l-28 43 -3 380 c-2 333 -1 379 12 366 8 -8 173 -208 366 -445 326 -398 355
-430 386 -433 l34 -3 0 516 c0 564 -1 557 59 607 58 49 45 58 -84 58 -98 0
-115 -2 -115 -16 0 -8 13 -26 29 -40 59 -49 62 -73 59 -448 l-3 -339 -345 421
-345 421 -157 1 c-148 0 -158 -1 -158 -19z"/>
<path d="M7840 5774 c0 -9 11 -25 25 -36 14 -11 34 -37 45 -59 19 -36 20 -60
20 -479 0 -414 -1 -443 -19 -478 -10 -20 -31 -48 -45 -61 -14 -14 -26 -32 -26
-40 0 -14 23 -16 180 -16 158 0 180 2 180 16 0 9 -9 24 -21 35 -49 45 -49 41
-49 561 0 582 -9 539 114 530 105 -8 191 -38 282 -99 87 -58 151 -133 198
-232 59 -122 70 -238 36 -370 -56 -218 -211 -376 -404 -409 -54 -9 -66 -15
-66 -30 0 -17 7 -18 118 -11 143 8 241 32 333 80 128 67 231 211 264 369 46
221 -9 421 -154 558 -153 144 -329 187 -768 187 -216 0 -243 -2 -243 -16z"/>
<path d="M230 4331 c0 -6 4 -11 10 -11 5 0 16 -13 25 -30 22 -43 22 -527 0
-570 -9 -17 -20 -30 -25 -30 -6 0 -10 -4 -10 -10 0 -6 40 -10 100 -10 55 0
100 2 100 5 0 3 -9 14 -20 25 -19 19 -20 33 -20 298 0 319 1 322 73 322 102 0
182 -80 174 -173 -7 -78 -64 -127 -169 -142 -83 -12 -54 -26 40 -20 113 9 154
20 192 51 41 35 60 74 60 125 0 64 -34 114 -99 147 -54 26 -63 27 -243 30
-132 3 -188 1 -188 -7z"/>
<path d="M780 4330 c0 -5 4 -10 10 -10 5 0 16 -13 25 -30 12 -24 15 -75 15
-285 0 -210 -3 -261 -15 -285 -9 -17 -20 -30 -25 -30 -6 0 -10 -4 -10 -10 0
-6 40 -10 100 -10 55 0 100 2 100 5 0 3 -9 14 -20 25 -18 18 -20 33 -20 155
l0 135 155 0 155 0 0 -135 c0 -122 -2 -137 -20 -155 -11 -11 -20 -22 -20 -25
0 -3 45 -5 100 -5 60 0 100 4 100 10 0 6 -4 10 -10 10 -5 0 -16 13 -25 30 -12
24 -15 75 -15 285 0 210 3 261 15 285 9 17 20 30 25 30 6 0 10 5 10 10 0 6
-40 10 -100 10 -55 0 -100 -2 -100 -5 0 -3 9 -14 20 -25 18 -18 20 -33 20
-160 l0 -140 -155 0 -155 0 0 140 c0 127 2 142 20 160 11 11 20 22 20 25 0 3
-45 5 -100 5 -60 0 -100 -4 -100 -10z"/>
<path d="M1672 4322 c-237 -85 -298 -397 -111 -566 65 -58 139 -86 229 -86
133 0 250 72 307 188 24 50 28 69 28 147 0 78 -4 97 -28 146 -32 67 -100 132
-165 162 -67 29 -190 34 -260 9z m195 -22 c82 -50 128 -159 127 -300 -1 -122
-26 -193 -95 -262 -47 -47 -50 -48 -109 -48 -59 0 -62 1 -109 48 -69 69 -94
140 -95 262 -1 108 17 173 65 240 40 55 84 80 139 80 27 0 58 -8 77 -20z"/>
<path d="M2190 4286 c0 -29 -3 -68 -6 -85 -9 -42 16 -42 35 0 15 34 82 87 134
106 18 6 53 12 80 12 l47 1 0 -285 c0 -237 -3 -291 -15 -315 -9 -17 -20 -30
-25 -30 -6 0 -10 -4 -10 -10 0 -6 42 -10 105 -10 63 0 105 4 105 10 0 6 -4 10
-10 10 -5 0 -16 13 -25 30 -12 24 -15 78 -15 316 l0 286 58 -4 c61 -5 109 -23
157 -62 l29 -24 -34 -68 c-32 -63 -35 -75 -35 -158 0 -79 4 -98 28 -148 57
-116 174 -188 307 -188 133 0 250 72 307 188 24 50 28 69 28 147 0 71 -5 100
-22 137 -30 66 -96 133 -162 165 -49 25 -67 28 -152 28 -88 0 -101 -3 -157
-32 l-62 -32 0 35 0 34 -345 0 -345 0 0 -54z m987 14 c82 -50 128 -159 127
-300 -1 -122 -26 -193 -95 -262 -47 -47 -50 -48 -109 -48 -59 0 -62 1 -109 48
-69 69 -94 140 -95 262 -1 108 17 173 65 240 40 55 84 80 139 80 27 0 58 -8
77 -20z"/>
<path d="M3740 4324 c-105 -28 -181 -91 -223 -183 -31 -69 -30 -207 2 -278 27
-61 103 -136 164 -163 38 -17 146 -40 190 -40 32 0 17 16 -25 27 -208 56 -295
328 -165 519 17 26 49 61 70 78 32 26 48 31 107 34 58 4 75 1 104 -18 62 -38
102 -114 76 -145 -7 -9 -10 -18 -6 -22 7 -8 40 9 81 42 29 24 29 25 14 52 -21
35 -98 89 -147 103 -53 14 -177 11 -242 -6z"/>
<path d="M4190 4331 c0 -6 4 -11 10 -11 5 0 16 -13 25 -30 12 -24 15 -75 15
-288 l0 -259 -25 -37 c-14 -20 -25 -38 -25 -39 0 -1 45 -2 100 -2 55 0 100 2
100 3 0 2 -9 15 -20 29 -19 24 -20 41 -20 302 0 329 -1 326 87 319 84 -7 141
-61 150 -139 9 -79 -56 -144 -156 -156 -61 -7 -66 -18 -11 -26 83 -11 113 -50
135 -179 17 -95 33 -123 77 -136 44 -13 148 -23 148 -13 0 4 -13 17 -30 29
-37 28 -55 61 -76 147 -19 77 -51 120 -107 145 l-38 17 38 7 c86 14 143 77
143 157 0 61 -31 107 -95 139 -47 23 -62 25 -237 28 -133 3 -188 1 -188 -7z"/>
<path d="M5062 4288 c-11 -29 -56 -143 -100 -253 -43 -110 -87 -223 -96 -252
-9 -28 -28 -63 -41 -78 -14 -14 -25 -28 -25 -31 0 -2 36 -4 80 -4 47 0 80 4
80 10 0 6 -4 10 -10 10 -20 0 -50 41 -50 69 0 17 12 62 26 101 l27 71 110 -3
111 -3 27 -70 c31 -79 36 -136 14 -159 -8 -8 -15 -17 -15 -20 0 -3 50 -6 110
-6 61 0 110 3 110 8 0 4 -9 13 -20 20 -28 17 -53 73 -170 375 -92 236 -106
267 -125 267 -17 0 -27 -12 -43 -52z m52 -212 c25 -65 46 -120 46 -122 0 -2
-45 -4 -99 -4 l-99 0 40 103 c22 56 44 113 49 126 5 13 11 22 14 20 2 -2 24
-57 49 -123z"/>
<path d="M5430 4331 c0 -6 4 -11 10 -11 5 0 16 -13 25 -30 12 -24 15 -75 15
-285 0 -210 -3 -261 -15 -285 -9 -17 -20 -30 -25 -30 -6 0 -10 -4 -10 -10 0
-6 40 -10 100 -10 55 0 100 2 100 5 0 3 -9 14 -20 25 -19 19 -20 33 -20 298 0
319 1 322 73 322 102 0 182 -80 174 -173 -7 -78 -64 -127 -169 -142 -83 -12
-54 -26 40 -20 113 9 154 20 192 51 41 35 60 74 60 125 0 64 -34 114 -99 147
-54 26 -63 27 -243 30 -132 3 -188 1 -188 -7z"/>
<path d="M5980 4330 c0 -5 4 -10 10 -10 5 0 16 -13 25 -30 12 -24 15 -75 15
-285 0 -210 -3 -261 -15 -285 -9 -17 -20 -30 -25 -30 -6 0 -10 -4 -10 -10 0
-6 40 -10 100 -10 55 0 100 2 100 5 0 3 -9 14 -20 25 -18 18 -20 33 -20 155
l0 135 155 0 155 0 0 -135 c0 -122 -2 -137 -20 -155 -11 -11 -20 -22 -20 -25
0 -3 45 -5 100 -5 60 0 100 4 100 10 0 6 -4 10 -10 10 -5 0 -16 13 -25 30 -12
24 -15 75 -15 285 0 210 3 261 15 285 9 17 20 30 25 30 6 0 10 5 10 10 0 6
-40 10 -100 10 -55 0 -100 -2 -100 -5 0 -3 9 -14 20 -25 18 -18 20 -33 20
-160 l0 -140 -155 0 -155 0 0 140 c0 127 2 142 20 160 11 11 20 22 20 25 0 3
-45 5 -100 5 -60 0 -100 -4 -100 -10z"/>
<path d="M6650 4331 c0 -5 10 -11 23 -15 34 -8 75 -56 181 -211 l96 -139 0
-109 c0 -106 -15 -167 -40 -167 -6 0 -10 -4 -10 -10 0 -6 42 -10 105 -10 63 0
105 4 105 10 0 6 -4 10 -10 10 -5 0 -16 13 -25 30 -11 21 -15 61 -15 151 l0
122 86 133 c84 130 140 194 169 194 8 0 15 5 15 10 0 6 -35 10 -85 10 -87 0
-100 -6 -65 -28 11 -7 20 -20 20 -29 0 -15 -147 -253 -156 -253 -2 0 -40 54
-84 121 -73 110 -97 169 -70 169 6 0 10 5 10 10 0 6 -48 10 -125 10 -69 0
-125 -4 -125 -9z"/>
<path d="M7650 4332 c0 -4 12 -12 28 -18 15 -6 41 -30 57 -54 l30 -43 3 -243
3 -244 -25 -25 c-14 -14 -26 -28 -26 -30 0 -3 29 -5 65 -5 36 0 65 2 65 5 0 2
-11 15 -25 29 l-25 25 0 228 c1 181 3 225 13 212 126 -161 412 -499 422 -499
11 0 14 54 17 306 l3 306 28 23 c15 13 27 27 27 30 0 3 -29 5 -65 5 -37 0 -65
-4 -65 -10 0 -5 4 -10 10 -10 5 0 15 -12 22 -27 10 -21 12 -78 8 -227 l-5
-200 -194 237 -194 237 -89 0 c-48 0 -88 -4 -88 -8z"/>
<path d="M8397 4289 c-4 -28 -13 -64 -22 -81 -18 -37 -18 -38 -4 -38 6 0 31
22 57 48 71 72 128 96 240 100 50 2 92 1 92 -2 0 -3 -94 -148 -210 -321 -115
-173 -210 -317 -210 -320 0 -3 123 -5 273 -5 l273 0 12 58 c7 31 15 69 18 85
5 21 3 27 -10 27 -9 0 -16 -6 -16 -14 0 -19 -70 -80 -122 -108 -36 -19 -63
-23 -166 -26 l-123 -4 211 317 c115 175 210 322 210 327 0 4 -112 8 -249 8
l-248 0 -6 -51z"/>
<path d="M4110 4010 c0 -12 -82 -60 -103 -60 -22 0 -22 -9 0 -25 10 -8 18 -32
21 -67 6 -74 -17 -120 -74 -154 -41 -24 -57 -44 -35 -44 5 0 42 13 82 30 77
31 109 37 109 20 0 -5 7 -10 15 -10 13 0 15 24 15 160 0 136 -2 160 -15 160
-8 0 -15 -4 -15 -10z"/>
</g>
</svg>
